<svg width="60" height="60" fill="none" xmlns="http://www.w3.org/2000/svg"><path d="M23.75 40c-4.542 0-8.385-1.573-11.53-4.72-3.145-3.147-4.718-6.99-4.72-11.53-.002-4.54 1.572-8.383 4.72-11.53 3.148-3.147 6.992-4.72 11.53-4.72 4.538 0 8.383 1.573 11.532 4.72 3.15 3.147 4.723 6.99 4.718 11.53 0 1.833-.292 3.563-.875 5.188-.583 1.625-1.375 3.062-2.375 4.312l14 14c.458.458.688 1.042.688 1.75s-.23 1.292-.688 1.75c-.458.458-1.042.688-1.75.688s-1.292-.23-1.75-.688l-14-14c-1.25 1-2.688 1.792-4.313 2.375-1.625.583-3.354.875-5.187.875zm0-5c3.125 0 5.782-1.093 7.97-3.28 2.188-2.187 3.282-4.843 3.28-7.97-.002-3.127-1.095-5.782-3.28-7.967-2.185-2.185-4.842-3.28-7.97-3.283-3.128-.003-5.784 1.09-7.967 3.283-2.184 2.191-3.278 4.847-3.283 7.967-.005 3.12 1.09 5.777 3.283 7.97 2.193 2.193 4.849 3.287 7.967 3.28z" fill="#ffffff"/></svg>